<?xml version="1.0" standalone="no"?>
<!DOCTYPE svg PUBLIC "-//W3C//DTD SVG 1.1//EN" "http://www.w3.org/Graphics/SVG/1.1/DTD/svg11.dtd" >
<svg xmlns="http://www.w3.org/2000/svg">
<metadata>
This is a custom SVG webfont generated by Font Squirrel.
Copyright   : The digitally encoded machine readable outline data for producing the typefaces licensed to you is copyrighted C 2000 by The Foundry London All Rights Reserved
</metadata>
<defs>
<font id="FoundryMonolineLight" horiz-adv-x="1150" >
<font-face units-per-em="2048" ascent="1638" descent="-410" />
<missing-glyph horiz-adv-x="552" />
<glyph unicode=" "  horiz-adv-x="552" />
<glyph unicode="&#x09;" horiz-adv-x="552" />
<glyph unicode="&#xa0;" horiz-adv-x="552" />
<glyph unicode="!" horiz-adv-x="575" d="M217 55q0 70 70 70q72 0 71 -70q0 -70 -71 -69q-70 -1 -70 69zM244 389v977h86v-977h-86z" />
<glyph unicode="&#x22;" horiz-adv-x="880" d="M246 942v424h84v-424h-84zM553 942v424h84v-424h-84z" />
<glyph unicode="#" d="M33 475v78h274l84 315h-252v78h275l127 475h82l-129 -475h288l129 475h82l-129 -475h254v-78h-274l-84 -315h252v-78h-273l-125 -475h-82l125 475h-288l-125 -475h-82l125 475h-254zM391 553h287l84 315h-289z" />
<glyph unicode="$" horiz-adv-x="1130" d="M141 274h86q0 -106 66.5 -148t226.5 -44v590q-197 14 -272 73q-96 76 -96 269q0 346 368 352v195h84v-195q193 -2 281 -63.5t88 -210.5h-86q0 106 -62.5 148t-220.5 44v-532q229 -23 295 -74q88 -70 88 -293q0 -199 -91 -291t-292 -94v-203l-84 2v201q-195 2 -282 61 q-97 66 -97 213zM238 1004q0 -152 73 -201q51 -37 209 -47v528q-154 -2 -218 -63t-64 -217zM604 80q162 4 230.5 74.5t68.5 238.5t-65 221q-53 41 -234 54v-588z" />
<glyph unicode="%" horiz-adv-x="1753" d="M176 969q0 152 2 180q12 115 62 166q61 66 194 65q188 0 236 -131q23 -61 22 -280q0 -246 -35 -310q-57 -104 -223 -104q-186 0 -235 129q-23 60 -23 285zM254 969q0 -219 22 -269q35 -74 158 -73q139 0 166 92q14 49 14 250q0 219 -22 268q-33 70 -158 70 q-137 0 -164 -88q-16 -55 -16 -250zM485 0l717 1376h84l-721 -1376h-80zM1061 399q0 152 2 181q12 115 61 165q61 66 195 66q188 0 235 -131q23 -61 23 -281q0 -246 -35 -309q-57 -104 -223 -104q-186 0 -236 129q-22 59 -22 284zM1139 399q0 -219 22 -268q35 -74 158 -74 q139 0 166 93q14 49 14 249q0 219 -22 269q-33 70 -158 69q-137 0 -164 -88q-16 -55 -16 -250z" />
<glyph unicode="&#x26;" horiz-adv-x="1230" d="M147 373q0 301 209 350q-117 33 -159 108q-37 66 -37 199q0 193 90 271.5t307 78.5q205 0 300 -67.5t99 -233.5h-86q-4 123 -74.5 170t-236.5 47q-182 0 -247.5 -56t-65.5 -214q0 -160 80 -215q66 -47 233 -47h387v143h84v-143h125v-84h-123v-231q0 -131 -12 -195 q-18 -106 -82 -170q-100 -100 -350 -100q-236 0 -332 75q-109 87 -109 314zM233 367q0 -184 86 -246q72 -51 269 -51q217 0 291 73q68 68 67 306v231h-387q-188 0 -254 -62q-72 -63 -72 -251z" />
<glyph unicode="'" horiz-adv-x="575" d="M246 942v424h84v-424h-84z" />
<glyph unicode="(" horiz-adv-x="598" d="M82 627q0 588 63 800q37 121 123 172.5t248 51.5v-78q-129 0 -192 -37q-55 -31 -84 -104q-72 -182 -72 -803q0 -616 72 -799q29 -74 84 -104q63 -37 192 -37v-80q-162 0 -248 51t-123 172q-63 213 -63 795z" />
<glyph unicode=")" horiz-adv-x="598" d="M82 -311q129 0 192 37q55 31 84 104q72 182 72 799q0 621 -72 803q-29 74 -84 104q-63 37 -192 37v78q162 0 248 -51.5t123 -172.5q63 -213 63 -800q0 -582 -63 -795q-37 -121 -123 -172t-248 -51v80z" />
<glyph unicode="*" horiz-adv-x="1071" d="M57 999l25 72l416 -129v424h77v-424l414 129l25 -72l-416 -131l254 -342l-61 -45l-256 340l-252 -340l-64 45l256 342z" />
<glyph unicode="+" d="M86 451v81h446v447h84v-447h447v-81h-447v-451h-84v451h-446z" />
<glyph unicode="," horiz-adv-x="425" d="M66 -258l38 37q45 43 58 86q10 31 10 104v154h86v-154q0 -86 -12 -129q-18 -59 -74 -108l-51 -45z" />
<glyph unicode="-" horiz-adv-x="983" d="M193 451v81h598v-81h-598z" />
<glyph unicode="." horiz-adv-x="425" d="M143 55q0 70 70 70q72 0 72 -70t-72 -69q-70 -1 -70 69z" />
<glyph unicode="/" horiz-adv-x="1011" d="M33 -172l860 1718h86l-860 -1718h-86z" />
<glyph unicode="0" horiz-adv-x="1148" d="M158 682q0 221 2 266q8 174 47 252q88 180 366 180q279 0 367 -180q41 -82 49 -256q2 -41 2 -262q0 -377 -33 -473q-76 -223 -385 -223q-307 0 -383 223q-32 96 -32 473zM246 682q0 -387 39 -475q61 -139 288 -139t289 139q41 94 41 475q0 350 -29 442q-53 174 -301 174 q-246 0 -299 -174q-28 -92 -28 -442z" />
<glyph unicode="1" horiz-adv-x="917" d="M113 1061l344 305h84v-1284h331v-82h-751v82h332v1175l-283 -253z" />
<glyph unicode="2" horiz-adv-x="1126" d="M174 0v299q0 125 66 201q55 66 174 110l221 74q141 51 190 102q70 74 70 215q0 166 -71.5 231.5t-245.5 65.5q-166 0 -242 -46t-76 -160h-86q0 158 102 225q94 63 297 63q207 0 308.5 -81.5t101.5 -297.5q0 -186 -98 -280q-61 -59 -219 -113l-230 -78q-109 -45 -143 -104 q-31 -51 -31 -166v-178h717v-82h-805z" />
<glyph unicode="3" horiz-adv-x="1128" d="M147 276h86q0 -113 75 -160.5t241 -47.5q182 0 254 57q80 66 80 242q0 207 -101 264q-68 37 -229 37h-193v84h193q174 0 240 49q78 59 77 225q0 158 -66.5 215t-250.5 57q-168 0 -244 -47t-76 -159h-86q0 158 105 225q96 63 301 63q221 0 313 -78.5t92 -271.5 q0 -262 -188 -319q113 -29 160 -115q41 -78 41 -223q0 -215 -101.5 -301t-320.5 -86q-197 0 -291 59q-111 69 -111 231z" />
<glyph unicode="4" horiz-adv-x="1130" d="M111 408v79l608 879h92v-877h201v-81h-201v-408h-88v408h-612zM213 489h510v740z" />
<glyph unicode="5" d="M176 276h84q0 -115 70.5 -160.5t236.5 -45.5q188 0 261 72.5t73 265.5q0 197 -55 272q-66 92 -254 92q-303 0 -311 -180h-82v774h745v-82h-661v-534q82 106 313 106q221 0 311 -113q82 -102 82 -327q0 -231 -95 -330.5t-327 -99.5q-199 0 -291 63q-100 69 -100 227z" />
<glyph unicode="6" horiz-adv-x="1144" d="M158 625q0 332 26 483q47 272 404 272q379 0 379 -288h-86q0 207 -291 206q-137 0 -209 -40.5t-100 -133.5q-33 -109 -33 -446q98 178 342 178q215 0 306 -100.5t91 -337.5q0 -225 -97 -328.5t-308 -103.5q-299 0 -381 223q-43 119 -43 416zM256 426q0 -188 78 -272 t246 -84q174 0 247.5 77.5t73.5 268.5q0 201 -66.5 278.5t-234.5 77.5q-344 0 -344 -346z" />
<glyph unicode="7" horiz-adv-x="931" d="M59 1284v82h815v-80l-595 -1286h-97l598 1284h-721z" />
<glyph unicode="8" d="M158 371q0 289 211 340q-119 31 -164 114q-35 66 -35 205q0 193 92 271.5t313 78.5t313.5 -78.5t92.5 -271.5q0 -135 -37 -203q-43 -86 -160 -116q111 -27 160 -107t49 -233q0 -215 -99 -300t-319 -85q-219 0 -315 82q-102 88 -102 303zM246 367q0 -180 76 -242 q66 -55 253 -55q184 0 252 55q78 61 78 240q0 180 -78 243q-70 59 -252 60q-188 0 -253 -56q-76 -61 -76 -245zM258 1030q0 -168 76 -227q68 -53 241 -53q176 0 242 51q76 57 76 225q0 158 -66.5 215t-251.5 57q-184 0 -250.5 -57t-66.5 -211z" />
<glyph unicode="9" horiz-adv-x="1140" d="M154 948q0 225 97 328.5t308 103.5q299 0 381 -223q43 -119 43 -416q0 -332 -27 -483q-47 -272 -403 -272q-379 0 -379 288h86q0 -207 291 -206q137 0 208.5 41t100.5 133q33 109 33 446q-98 -178 -342 -178q-215 0 -306 100t-91 338zM240 950q0 -201 66.5 -278.5 t234.5 -77.5q344 0 344 346q0 188 -78 272t-246 84q-174 0 -247.5 -78t-73.5 -268z" />
<glyph unicode=":" horiz-adv-x="425" d="M143 55q0 70 70 70q72 0 72 -70t-72 -69q-70 -1 -70 69zM143 926q0 70 70 69q72 0 72 -69q0 -70 -72 -70q-70 0 -70 70z" />
<glyph unicode=";" horiz-adv-x="425" d="M66 -258l38 37q45 43 58 86q10 31 10 104v154h86v-154q0 -86 -12 -129q-18 -59 -74 -108l-51 -45zM143 926q0 70 70 69q72 0 72 -69q0 -70 -72 -70q-70 0 -70 70z" />
<glyph unicode="&#x3c;" d="M82 451v81l952 447l35 -78l-883 -407l883 -416l-35 -78z" />
<glyph unicode="=" horiz-adv-x="1153" d="M88 254v82h977v-82h-977zM88 649v82h977v-82h-977z" />
<glyph unicode="&#x3e;" d="M82 78l883 416l-883 407l35 78l952 -447v-81l-952 -451z" />
<glyph unicode="?" horiz-adv-x="860" d="M70 1092q0 156 90 225q86 63 272 63q190 0 279.5 -75.5t89.5 -264.5q0 -129 -52.5 -202.5t-166.5 -124.5q-96 -41 -121 -95q-18 -39 -19 -155v-74h-88v109q0 125 45 188q37 55 132.5 96t134.5 86q49 61 49 172q0 145 -61.5 201.5t-217.5 56.5q-154 0 -219 -46t-65 -160 h-82zM330 55q0 70 69 70q72 0 72 -70t-72 -69q-69 -1 -69 69z" />
<glyph unicode="@" horiz-adv-x="1564" d="M168 645q0 479 141 612q131 123 482 123q367 0 491 -116q63 -59 89 -163t26 -319q0 -365 -99 -460q-80 -80 -270 -80v100q-82 -113 -268 -113q-199 0 -268 111q-51 84 -52 295q0 213 52 297q68 113 266 112q188 0 270 -112v98h78v-711q145 0 184 156q25 96 25 324 q0 184 -25 274q-20 80 -71 129q-104 100 -424 101q-322 0 -426 -107q-119 -121 -119 -561q0 -451 102 -569q109 -125 451 -125q174 0 262 24q139 41 207 156l71 -37q-68 -137 -237 -188q-115 -33 -313 -33q-379 0 -506 147q-119 137 -119 635zM524 635q0 -178 31 -238 q47 -92 199 -92q154 0 214 72t60 258q0 188 -61.5 261t-214.5 73q-150 0 -197 -95q-31 -63 -31 -239z" />
<glyph unicode="A" horiz-adv-x="1243" d="M53 0l520 1366h95l522 -1366h-96l-160 418h-631l-158 -418h-92zM334 496h569l-282 764z" />
<glyph unicode="B" horiz-adv-x="1323" d="M201 0v1366h444q266 0 348 -39q145 -68 146 -309q0 -264 -172 -316q184 -51 184 -327q0 -252 -137 -328q-88 -47 -357 -47h-456zM289 82h354q242 0 305 31q113 51 113 256q0 207 -109 260q-66 33 -309 33h-354v-580zM289 739h356q225 0 293 33q113 55 113 252 q0 190 -121 240q-59 23 -299 22h-342v-547z" />
<glyph unicode="C" horiz-adv-x="1300" d="M168 682q0 272 18 377q31 164 138 237q117 84 366 84q248 0 354.5 -81.5t106.5 -280.5h-84q-2 158 -85 218t-310 60q-203 0 -295 -69q-82 -61 -105 -205q-14 -86 -14 -340t12 -338q23 -143 107 -205q92 -70 295 -69q227 0 310 60t85 218h84q0 -199 -106.5 -281.5 t-354.5 -82.5q-250 0 -366 84q-106 74 -138 237q-18 105 -18 377z" />
<glyph unicode="D" horiz-adv-x="1351" d="M201 0v1366h463q186 0 282 -35q133 -51 191 -194q47 -117 47 -453q0 -195 -6 -264q-16 -160 -72.5 -253t-155 -130t-286.5 -37h-463zM289 82h362q166 0 247 26.5t124 92.5q72 109 72 483q0 375 -72 483q-43 66 -124 92.5t-247 26.5h-362v-1204z" />
<glyph unicode="E" horiz-adv-x="1193" d="M201 0v1366h821v-82h-729v-541h708v-81h-708v-580h729v-82h-821z" />
<glyph unicode="F" horiz-adv-x="1142" d="M201 0v1366h811v-82h-721v-541h702v-81h-702v-662h-90z" />
<glyph unicode="G" horiz-adv-x="1349" d="M168 682q0 276 18 379q31 164 138 237q119 82 370 82q250 0 365 -83t115 -279h-87q-2 156 -93 217t-318 61q-207 0 -301 -69q-82 -61 -105 -207q-12 -80 -12 -338q0 -264 10 -338q20 -143 103 -205q92 -70 299 -69q260 0 354 139q49 72 61 221q4 53 5 232h-439v81h523 v-743h-82v186q-111 -203 -426 -202q-242 0 -355 88q-98 76 -127 241q-16 99 -16 369z" />
<glyph unicode="H" horiz-adv-x="1337" d="M201 0v1366h90v-623h756v623h90v-1366h-90v662h-756v-662h-90z" />
<glyph unicode="I" horiz-adv-x="491" d="M201 0v1366h90v-1366h-90z" />
<glyph unicode="J" horiz-adv-x="1077" d="M86 348h84q0 -162 80 -223q70 -55 239 -55q186 0 254 88q55 72 56 260v948h90v-944q0 -227 -80 -326q-90 -113 -320 -112q-207 0 -301 77q-102 86 -102 287z" />
<glyph unicode="K" horiz-adv-x="1171" d="M201 0v1366h88v-645l706 645h125l-753 -680l755 -686h-133l-698 643v-643h-90z" />
<glyph unicode="L" horiz-adv-x="1042" d="M201 0v1366h90v-1284h721v-82h-811z" />
<glyph unicode="M" horiz-adv-x="1677" d="M201 0v1366h121l518 -1270l514 1270h123v-1366h-88v1239l-504 -1239h-97l-501 1239v-1239h-86z" />
<glyph unicode="N" horiz-adv-x="1333" d="M201 0v1366h110l733 -1239v1239h89v-1366h-115l-729 1241v-1241h-88z" />
<glyph unicode="O" horiz-adv-x="1361" d="M168 684q0 272 14 365q29 168 131 243q117 88 367 88t367 -88q102 -76 131 -243q14 -92 14 -365q0 -274 -14 -367q-29 -168 -131 -243q-117 -90 -367 -90t-367 90q-102 76 -131 243q-14 93 -14 367zM258 682q0 -256 12 -336q23 -143 105 -207q96 -70 305 -69 q209 0 305 69q82 63 105 207q12 80 12 336t-12 336q-23 145 -105 207q-96 72 -305 71q-209 0 -305 -71q-82 -61 -105 -207q-12 -80 -12 -336z" />
<glyph unicode="P" horiz-adv-x="1232" d="M201 0v1366h440q274 0 360 -45q137 -74 138 -322q0 -246 -138 -319q-90 -47 -360 -47h-350v-633h-90zM291 715h342q238 0 303 30q113 53 113 256q0 201 -115 254q-68 31 -301 31h-342v-571z" />
<glyph unicode="Q" horiz-adv-x="1359" d="M168 684q0 272 14 365q29 168 131 243q117 88 367 88t367 -88q102 -76 131 -243q14 -92 14 -365q0 -362 -43 -473q-76 -193 -348 -219l106 -244l-78 -35l-120 273q-12 0 -25 -1q-243 0 -360 78q-106 74 -138 242q-18 100 -18 379zM258 682q0 -256 12 -332 q20 -145 103 -207q94 -74 303 -73l-86 202l78 33l98 -231q236 20 297 170q39 94 39 438q0 256 -12 336q-23 145 -105 207q-96 72 -305 71q-209 0 -305 -71q-82 -61 -105 -207q-12 -80 -12 -336z" />
<glyph unicode="R" horiz-adv-x="1318" d="M201 0v1366h440q274 0 356 -41q141 -72 142 -328q0 -254 -176 -305q129 -31 161 -157q14 -51 15 -222v-313h-88v307q0 170 -23 232q-27 72 -115 92q-74 18 -282 18h-340v-649h-90zM291 733h354q236 0 293 25q113 49 113 246q0 199 -117 251q-66 31 -301 31h-342v-553z " />
<glyph unicode="S" horiz-adv-x="1302" d="M152 348h86q2 -180 124 -239q82 -39 291 -39q207 0 295 55q113 72 113 262t-115 240q-61 27 -297 30q-266 4 -350 43q-147 68 -147 299t137 316q106 66 356 65q242 0 350 -61q143 -82 144 -301h-84q-2 180 -125 239q-82 39 -289 39q-211 0 -289 -45q-113 -61 -112 -250 q0 -184 122 -233q59 -23 289 -27q266 -4 353 -45q147 -72 147 -303q0 -233 -139 -330q-115 -80 -363 -79q-242 0 -352 61q-145 82 -145 303z" />
<glyph unicode="T" horiz-adv-x="1097" d="M61 1284v82h975v-82h-442v-1284h-90v1284h-443z" />
<glyph unicode="U" horiz-adv-x="1329" d="M188 449q0 -8 0 239v678h91v-678q0 -270 2 -305q6 -115 36 -170q80 -143 347 -143q262 0 342 143q33 59 41 170q4 66 4 305v678h90v-678q0 -238 -4 -295q-12 -156 -60 -231q-113 -178 -413 -178q-356 0 -445 229q-27 70 -31 236z" />
<glyph unicode="V" horiz-adv-x="1148" d="M25 1366h94l456 -1253l457 1253h92l-506 -1366h-94z" />
<glyph unicode="W" horiz-adv-x="1785" d="M102 1366h93l303 -1239l342 1239h108l342 -1239l305 1239h88l-340 -1366h-108l-342 1247l-344 -1247h-111z" />
<glyph unicode="X" horiz-adv-x="1126" d="M76 0l432 690l-426 676h102l381 -608l375 608h104l-428 -676l435 -690h-105l-387 618l-381 -618h-102z" />
<glyph unicode="Y" horiz-adv-x="1067" d="M23 1366h100l414 -678l409 678h98l-469 -764v-602h-88v602z" />
<glyph unicode="Z" horiz-adv-x="1224" d="M145 0v84l832 1200h-832v82h934v-84l-833 -1200h833v-82h-934z" />
<glyph unicode="[" horiz-adv-x="598" d="M123 -391v2042h393v-78h-307v-1884h307v-80h-393z" />
<glyph unicode="\" horiz-adv-x="1064" d="M59 1546h86l861 -1718h-86z" />
<glyph unicode="]" horiz-adv-x="598" d="M82 -311h307v1884h-307v78h393v-2042h-393v80z" />
<glyph unicode="^" d="M86 426l449 952h81l449 -952l-78 -35l-412 883l-411 -883z" />
<glyph unicode="_" horiz-adv-x="1024" d="M0 -311h1024v-86h-1024v86z" />
<glyph unicode="`" horiz-adv-x="823" d="M223 1366h111l266 -264h-104z" />
<glyph unicode="a" horiz-adv-x="1087" d="M119 276q0 180 102 248q82 55 275 56h348q-2 150 -8 182q-12 78 -72 110q-70 39 -225 39q-141 0 -211 -32q-100 -45 -101 -168h-82q0 285 410 284q188 0 279 -59q74 -51 90 -156q8 -45 8 -211v-569h-82v154q-82 -168 -365 -168q-190 0 -278 68t-88 222zM207 279 q0 -115 61.5 -164t210.5 -49q233 0 312 116q54 80 53 276v42h-357q-145 0 -204 -37q-76 -49 -76 -184z" />
<glyph unicode="b" horiz-adv-x="1130" d="M172 0v1427h88v-589q94 158 342 157q246 0 332 -139q61 -104 61 -369q0 -262 -63 -364q-84 -137 -330 -137q-252 0 -346 161v-147h-84zM258 489q0 -238 78 -328.5t276 -90.5q193 0 254 120q41 80 41 299q0 217 -43 299q-61 121 -252 121q-199 0 -276.5 -90t-77.5 -330z " />
<glyph unicode="c" horiz-adv-x="1054" d="M135 489q0 272 70 377q88 129 346 129q385 0 385 -284h-82q0 201 -301 200q-217 0 -283 -106q-47 -78 -47 -313q0 -236 47 -314q66 -109 283 -108q301 0 301 198h82q0 -283 -385 -282q-258 0 -346 127q-70 102 -70 376z" />
<glyph unicode="d" horiz-adv-x="1130" d="M135 489q0 260 62 365q84 141 331 141q248 0 342 -157v589h88v-1427h-84v147q-94 -162 -346 -161q-250 0 -331 137q-62 100 -62 366zM223 487q0 -219 41 -297q61 -121 254 -120q201 0 277.5 89t76.5 328q0 242 -77.5 332t-276.5 90q-190 0 -252 -118q-43 -83 -43 -304z " />
<glyph unicode="e" horiz-adv-x="1085" d="M135 487q0 270 68 375q88 133 340 133q256 0 342 -135q66 -102 65 -379h-727q0 -229 49 -307q66 -104 279 -104q301 0 301 198h82q0 -283 -385 -282q-256 0 -344 127q-70 102 -70 374zM223 561h641q0 190 -67.5 271t-253.5 81q-182 0 -254 -86q-66 -78 -66 -266z" />
<glyph unicode="f" horiz-adv-x="886" d="M49 899v80h164v182q0 135 70 203q80 78 258 78q326 0 325 -228h-84q0 143 -237 144q-123 0 -178 -37q-66 -45 -66 -160v-182h440v-80h-440v-899h-88v899h-164z" />
<glyph unicode="g" horiz-adv-x="1128" d="M135 500q0 254 58 352q82 143 331 143q254 0 348 -159v143h84v-891q0 -211 -43 -303q-84 -182 -376 -182q-377 0 -379 282h84q0 -201 288 -200q240 0 304 135q31 66 34 166v172q-94 -160 -342 -160q-250 0 -331 137q-60 99 -60 365zM223 498q0 -217 41 -295 q59 -119 252 -119q199 0 276.5 88t77.5 326q0 236 -77.5 324.5t-276.5 88.5q-193 0 -254 -118q-39 -78 -39 -295z" />
<glyph unicode="h" horiz-adv-x="1097" d="M172 0v1427h88v-591q88 160 326 159q193 0 274 -84q59 -59 74 -157q8 -53 8 -232v-522h-88v506q0 170 -8 221q-10 82 -55 125q-63 59 -207 59q-223 0 -289 -153q-35 -84 -35 -324v-434h-88z" />
<glyph unicode="i" horiz-adv-x="432" d="M152 1317q0 63 65 63q66 0 66 -63q0 -68 -66 -68q-65 0 -65 68zM172 0v979h88v-979h-88z" />
<glyph unicode="j" horiz-adv-x="432" d="M-387 -145h84q2 -172 229 -172q131 0 201 69q45 45 45 166v1061h88v-1083q0 -293 -332 -293q-315 0 -315 252zM152 1317q0 63 65 63q66 0 66 -63q0 -68 -66 -68q-65 0 -65 68z" />
<glyph unicode="k" horiz-adv-x="950" d="M172 0v1427h88v-870l522 422h123l-561 -453l567 -526h-123l-528 496v-496h-88z" />
<glyph unicode="l" horiz-adv-x="432" d="M172 0v1427h88v-1427h-88z" />
<glyph unicode="m" horiz-adv-x="1652" d="M172 0v979h84v-139q80 156 303 155q244 0 297 -178q84 178 320 178q225 0 290 -145q31 -68 31 -258v-592h-88v596q0 174 -33 231q-47 82 -207 82q-199 0 -258 -151q-33 -84 -32 -328v-430h-88v596q0 172 -35 231q-49 84 -205 84q-203 0 -260 -157q-31 -82 -31 -324v-430 h-88z" />
<glyph unicode="n" horiz-adv-x="1097" d="M172 0v979h84v-148q88 164 330 164q190 0 274 -84q59 -59 74 -157q8 -53 8 -232v-522h-88v506q0 170 -8 221q-10 82 -55 125q-63 59 -207 59q-223 0 -289 -153q-35 -84 -35 -324v-434h-88z" />
<glyph unicode="o" horiz-adv-x="1110" d="M135 489q0 262 64 363q88 143 356 143t356 -143q63 -100 64 -363q0 -260 -64 -362q-88 -141 -356 -141t-356 141q-64 100 -64 362zM223 489q0 -236 49 -313q66 -106 283 -106t283 106q49 78 49 313q0 236 -49 314q-66 109 -283 108q-217 0 -283 -108q-49 -78 -49 -314z " />
<glyph unicode="p" horiz-adv-x="1130" d="M172 -391v1370h84v-148q94 164 346 164q248 0 332 -139q61 -102 61 -367q0 -264 -61 -364q-84 -139 -332 -139t-342 157v-534h-88zM258 492q0 -242 78 -332t276 -90q193 0 254 123q41 80 41 299q0 217 -41 296q-61 121 -254 121q-201 0 -277.5 -88.5t-76.5 -328.5z" />
<glyph unicode="q" horiz-adv-x="1130" d="M135 492q0 262 62 364q84 139 329 139q252 0 346 -159v143h86v-1370h-88v534q-94 -158 -344 -157q-250 0 -331 139q-60 101 -60 367zM223 489q0 -219 39 -299q61 -121 254 -120q201 0 278.5 90t77.5 329q0 240 -77.5 330t-278.5 90q-193 0 -254 -121q-39 -80 -39 -299z " />
<glyph unicode="r" horiz-adv-x="886" d="M172 0v979h84v-143q86 160 303 159q303 0 303 -280h-82q0 111 -61 155q-53 41 -168 41q-203 0 -260 -161q-31 -82 -31 -326v-424h-88z" />
<glyph unicode="s" horiz-adv-x="1026" d="M123 268h82q0 -115 62.5 -157.5t232.5 -42.5t242.5 46t72.5 158q0 96 -39 131t-161.5 44.5t-242.5 18.5t-171 56q-63 55 -64 191q0 158 99 223q87 59 287 59h14q221 -2 301 -84q63 -66 63 -196h-84q0 106 -60.5 152t-217.5 46q-170 0 -241 -42q-73 -43 -73 -151 q0 -99 41 -132q35 -29 155 -39t241.5 -20.5t173.5 -57.5q68 -57 67 -195q0 -158 -97 -225q-94 -66 -292 -65h-12q-207 2 -293 63t-86 219z" />
<glyph unicode="t" horiz-adv-x="894" d="M53 899v80h168v387h88v-387h453v-80h-453v-631q0 -115 56 -159q49 -41 167 -41q119 0 174.5 46t55.5 154h82q0 -283 -316 -282q-156 0 -231.5 65.5t-75.5 216.5v631h-168z" />
<glyph unicode="u" horiz-adv-x="1097" d="M156 457v522h88v-506q0 -170 8 -221q10 -82 55 -125q63 -59 207 -59q223 0 289 153q35 84 35 324v434h88v-979h-84v147q-90 -164 -330 -163q-190 0 -274 84q-59 59 -74 157q-8 54 -8 232z" />
<glyph unicode="v" horiz-adv-x="935" d="M43 979h92l336 -879l330 879h92l-375 -979h-98z" />
<glyph unicode="w" horiz-adv-x="1419" d="M59 979h93l251 -866l259 866h98l260 -866l250 866h90l-291 -979h-102l-256 870l-258 -870h-103z" />
<glyph unicode="x" horiz-adv-x="935" d="M59 0l357 496l-348 483h106l295 -416l299 416h102l-350 -481l357 -498h-107l-303 426l-303 -426h-105z" />
<glyph unicode="y" horiz-adv-x="931" d="M68 979h92l317 -866l307 866h93l-504 -1370h-90l147 393z" />
<glyph unicode="z" horiz-adv-x="970" d="M111 0v78l639 821h-639v80h749v-74l-637 -821h637v-84h-749z" />
<glyph unicode="{" horiz-adv-x="743" d="M166 629q0 51 57 108l111 111q8 8 8 18v432q0 113 12 170q20 88 82 150q74 74 226 74v-78q-115 0 -173 -58q-63 -63 -63 -253v-420q0 -66 -43 -109l-117 -115q-31 -31 0 -59l115 -111q45 -43 45 -116v-373q0 -193 66 -256q59 -57 170 -57v-78q-152 0 -226 74 q-61 61 -82 149q-12 57 -12 170v383q0 20 -12 33l-125 125q-39 39 -39 86z" />
<glyph unicode="|" horiz-adv-x="573" d="M244 -391v1757h86v-1757h-86z" />
<glyph unicode="}" horiz-adv-x="743" d="M82 -313q111 0 173 60t62 253v373q0 74 45 116l115 111q31 29 0 59q-16 16 -117 115q-43 43 -43 109v420q0 190 -63 253q-57 57 -172 58v78q152 0 225 -74q61 -61 82 -150q12 -57 12 -170v-432q0 -10 9 -18l110 -111q57 -57 58 -108q0 -47 -39 -86l-125 -125 q-12 -12 -13 -33v-383q0 -113 -12 -170q-20 -88 -82 -149q-74 -74 -225 -74v78z" />
<glyph unicode="~" d="M72 453l161 100q72 45 164 45q84 0 150 -39q53 -31 106 -63q61 -31 113 -31q51 0 102 31l166 102l45 -70l-161 -102q-70 -45 -162 -45q-86 0 -152 41q-35 23 -110 65q-49 29 -103 29q-55 0 -108 -33l-162 -98z" />
<glyph unicode="&#xa1;" horiz-adv-x="575" d="M217 926q0 70 72 69q70 0 69 -69q0 -70 -69 -70q-72 0 -72 70zM246 -387v977h86v-977h-86z" />
<glyph unicode="&#xa2;" horiz-adv-x="1054" d="M135 492q0 254 62 356q80 139 311 145v185h84v-185q344 -8 344 -282h-84q0 190 -260 198v-839q260 8 260 198h84q0 -272 -344 -282v-181h-84v181q-231 6 -311 147q-62 105 -62 359zM223 492q0 -217 39 -293q57 -119 246 -129v839q-188 -6 -246 -125q-39 -77 -39 -292z " />
<glyph unicode="&#xa3;" d="M131 0v82h115v563h-115v80h115v219q0 139 6 182q14 98 72 154q102 100 319 100q184 0 266 -43q123 -63 123 -245h-86q0 127 -82 172q-61 35 -200 34q-201 0 -279 -81q-39 -41 -47 -121q-4 -29 -4 -146v-225h604v-80h-604v-563h717v-82h-920z" />
<glyph unicode="&#xa4;" d="M123 530v80h106v148h-106v80h106q0 281 62 389q86 154 352 153q385 0 385 -288h-86q0 207 -299 206q-219 0 -285 -135q-41 -82 -41 -325h373v-80h-373v-148h373v-80h-373q0 -250 39 -329q63 -131 287 -131q299 0 299 206h86q0 -291 -385 -290q-266 0 -354 157 q-59 106 -60 387h-106z" />
<glyph unicode="&#xa5;" horiz-adv-x="1091" d="M51 1366h103l397 -680l393 680h96l-309 -528h184v-78h-231l-84 -146h315v-79h-323v-535h-88v535h-326v79h320l-88 146h-232v78h187z" />
<glyph unicode="&#xa6;" horiz-adv-x="573" d="M244 215h86v-606h-86v606zM244 760v606h86v-606h-86z" />
<glyph unicode="&#xa7;" d="M193 74h83q0 -117 68 -161t246 -44q147 0 209 43q72 49 71 178q0 127 -71 172q-53 35 -185 37q-168 2 -213 10q-123 23 -172 109q-37 63 -36 166q0 195 145 239q-145 47 -145 252q0 172 96 242q84 63 272 63q215 0 306 -64.5t91 -223.5h-86q0 115 -67.5 159.5 t-243.5 44.5q-147 0 -209 -43q-72 -49 -71 -178q0 -154 108 -192q35 -10 234 -19q174 -6 239 -51q96 -66 96 -231q0 -193 -145 -240q145 -47 145 -252q0 -172 -94 -242q-86 -63 -274 -63q-215 0 -303 61q-94 66 -94 228zM281 578q0 -137 94 -175q51 -23 221 -22 q143 0 197 29q78 41 77 176q0 129 -73 168q-59 31 -242 30q-150 0 -207 -34q-67 -45 -67 -172z" />
<glyph unicode="&#xa8;" horiz-adv-x="851" d="M141 1303q0 63 66 63q68 0 67 -63q0 -68 -67 -68q-66 0 -66 68zM580 1303q0 63 65 63q68 0 68 -63q0 -68 -68 -68q-65 0 -65 68z" />
<glyph unicode="&#xa9;" horiz-adv-x="1681" d="M168 688q0 410 134 551t538 141q408 0 540.5 -141t132.5 -555q0 -406 -133 -549q-139 -150 -540 -149q-399 0 -539 151q-133 143 -133 551zM250 682q0 -362 110 -485q121 -133 480 -134q365 0 483 136q109 123 109 491q0 371 -111 488q-115 125 -481 125 q-367 0 -482 -127q-108 -119 -108 -494zM428 688q0 264 74 365q88 119 342 118q387 0 387 -290h-80q0 125 -94 176q-70 37 -211 37q-213 0 -281 -101q-53 -80 -53 -305t53 -303q68 -102 281 -102q141 0 211 36q94 51 94 177h80q0 -291 -387 -291q-254 0 -342 119 q-74 100 -74 364z" />
<glyph unicode="&#xaa;" horiz-adv-x="774" d="M82 883q0 131 84 178q61 37 196 37h246q0 123 -30 162q-43 51 -187 51q-215 0 -215 -131h-76q0 201 303 200q186 0 246 -86q35 -51 35 -174v-432h-66v98q-86 -109 -266 -108q-143 0 -206.5 46t-63.5 159zM160 885q0 -78 40 -106.5t148 -28.5q164 0 221 86q37 57 37 192 h-250q-94 0 -137 -22q-59 -33 -59 -121z" />
<glyph unicode="&#xab;" horiz-adv-x="915" d="M109 485q0 96 92 220q37 49 166 182l57 -60q-117 -119 -145 -157q-86 -106 -86 -183q0 -80 81 -182q31 -37 146 -151l-58 -58q-127 127 -163 174q-90 117 -90 215zM496 485q0 96 92 220q37 49 166 182l57 -60q-117 -119 -145 -157q-86 -106 -86 -183q0 -80 82 -182 q31 -37 145 -151l-57 -58q-127 127 -164 174q-90 117 -90 215z" />
<glyph unicode="&#xac;" d="M88 649v82h975v-731h-84v649h-891z" />
<glyph unicode="&#xad;" horiz-adv-x="1153" d="M88 451v81h977v-81h-977z" />
<glyph unicode="&#x2212;" horiz-adv-x="1153" d="M88 451v81h977v-81h-977z" />
<glyph unicode="&#xae;" horiz-adv-x="1085" d="M94 920q0 274 88 367t361 93q272 0 360 -94t88 -368q0 -268 -90 -366.5t-358 -98.5t-358.5 98.5t-90.5 368.5zM158 915q0 -242 69 -317q76 -84 316 -84t315 86q70 78 70 322q0 242 -70 319q-76 80 -315 80q-242 0 -313.5 -80t-71.5 -326zM346 627v596h197q117 0 153 -19 q59 -31 60 -145q0 -92 -58 -127q57 -33 58 -135v-170h-64v166q0 80 -43 100q-20 8 -112 8h-125v-274h-66zM412 961h131q90 0 108 8q41 16 41 92q0 78 -41 94q-18 8 -114 8h-125v-202z" />
<glyph unicode="&#xaf;" horiz-adv-x="849" d="M98 1264v77h656v-77h-656z" />
<glyph unicode="&#x2c9;" horiz-adv-x="849" d="M98 1264v77h656v-77h-656z" />
<glyph unicode="&#xb0;" horiz-adv-x="1155" d="M279 1090q0 158 69.5 224t229.5 66q162 0 230.5 -67.5t68.5 -229.5q0 -168 -68 -239.5t-234 -71.5t-231 74t-65 244zM360 1075q0 -125 46.5 -175t168.5 -50q125 0 171.5 50t46.5 175q0 127 -45.5 177.5t-169.5 50.5q-125 0 -171.5 -51.5t-46.5 -176.5z" />
<glyph unicode="&#xb1;" d="M76 0v80h999v-80h-999zM86 586v82h446v391h84v-391h447v-82h-447v-396h-84v396h-446z" />
<glyph unicode="&#xb2;" horiz-adv-x="747" d="M111 1186q0 188 260 188q133 0 192 -47q68 -55 68 -184t-76 -185q-45 -33 -195 -73q-102 -29 -131 -51q-39 -33 -39 -123v-93h439v-71h-516v184q0 121 80 170q33 20 184 64q94 27 127 53q51 41 51 125q0 90 -42 125t-140 35q-96 0 -137 -23q-47 -27 -48 -94h-77z" />
<glyph unicode="&#xb3;" horiz-adv-x="747" d="M111 735h77q2 -68 44 -94.5t141 -26.5q111 0 147 27q47 31 47 135t-45 142q-37 29 -145 28h-131v70h131q96 0 135 22q47 31 47 121q0 88 -37 119t-145 31q-98 0 -141 -27t-43 -94h-76q0 193 260 192q137 0 197.5 -49t60.5 -168q0 -145 -94 -182q102 -37 102 -203 q0 -133 -70 -188q-63 -47 -200 -47q-262 -1 -262 192z" />
<glyph unicode="&#xb4;" horiz-adv-x="823" d="M223 1102l266 264h111l-272 -264h-105z" />
<glyph unicode="&#xb5;" horiz-adv-x="1107" d="M172 -391v1370h88v-504q0 -240 23 -295q47 -111 243 -110q211 0 279 141q43 90 43 336v432h88v-979h-86v150q-86 -164 -328 -164q-188 0 -262 94v-471h-88z" />
<glyph unicode="&#x3bc;" horiz-adv-x="1107" d="M172 -391v1370h88v-504q0 -240 23 -295q47 -111 243 -110q211 0 279 141q43 90 43 336v432h88v-979h-86v150q-86 -164 -328 -164q-188 0 -262 94v-471h-88z" />
<glyph unicode="&#xb6;" horiz-adv-x="1144" d="M90 999q0 248 137 322q86 45 361 45h323v-1366h-86v1284h-145v-1284h-86v637q-274 0 -363 45q-141 71 -141 317zM178 1001q0 -203 113 -253q63 -29 303 -29v565q-236 0 -301 -31q-115 -51 -115 -252z" />
<glyph unicode="&#xb7;" horiz-adv-x="428" d="M143 686q0 70 70 70q72 0 72 -70t-72 -70q-70 0 -70 70z" />
<glyph unicode="&#x2219;" horiz-adv-x="428" d="M143 686q0 70 70 70q72 0 72 -70t-72 -70q-70 0 -70 70z" />
<glyph unicode="&#xb8;" horiz-adv-x="849" d="M260 -254h68q0 -43 24 -57q16 -8 64 -8q53 0 68.5 20t15.5 68q0 59 -41 75q-16 6 -92 9v147h71v-92q133 0 133 -137q0 -150 -155 -150q-156 0 -156 125z" />
<glyph unicode="&#xb9;" horiz-adv-x="747" d="M111 1182l200 184h70v-748h188v-71h-452v71h186v644l-141 -129z" />
<glyph unicode="&#xba;" horiz-adv-x="774" d="M78 1030q0 188 51 258q63 92 258 92t260 -92q49 -70 49 -258t-49 -258q-66 -92 -260 -92q-195 0 -258 92q-51 70 -51 258zM156 1030q0 -162 34 -213q45 -66 197 -65q152 0 197 65q35 51 34 213q0 162 -34 213q-45 66 -197 66t-197 -66q-34 -51 -34 -213z" />
<glyph unicode="&#xbb;" horiz-adv-x="915" d="M104 827l58 60q129 -133 166 -182q92 -123 92 -220q0 -98 -90 -215q-37 -47 -164 -174l-57 58q115 115 145 151q82 102 82 182q0 76 -84 183q-31 38 -148 157zM492 827l57 60q129 -133 166 -182q92 -123 92 -220q0 -98 -90 -215q-37 -47 -164 -174l-57 58 q115 115 145 151q82 102 82 182q0 76 -84 183q-30 38 -147 157z" />
<glyph unicode="&#xbc;" horiz-adv-x="1597" d="M111 1182l200 184h70v-750h188v-69h-452v69h186v646l-141 -129zM418 0l717 1376h84l-721 -1376h-80zM864 229v68l373 522h72v-524h127v-66h-127v-229h-76v229h-369zM950 295h283v405z" />
<glyph unicode="&#xbd;" horiz-adv-x="1597" d="M111 1182l200 184h70v-750h188v-69h-452v69h186v646l-141 -129zM418 0l717 1376h84l-721 -1376h-80zM1004 639q0 188 260 188q133 0 192 -47q68 -55 68 -184t-76 -184q-45 -33 -195 -74q-102 -29 -131 -51q-39 -33 -39 -123v-92h439v-72h-516v184q0 121 79 170 q33 20 185 64q94 27 127 53q51 41 51 125q0 90 -42 125t-140 35q-96 0 -138 -23q-47 -27 -47 -94h-77z" />
<glyph unicode="&#xbe;" horiz-adv-x="1597" d="M111 735h77q2 -68 44 -94.5t141 -26.5q111 0 147 27q47 31 47 135t-45 142q-37 29 -145 28h-131v70h131q96 0 135 22q47 31 47 121q0 88 -37 119t-145 31q-98 0 -141 -27t-43 -94h-76q0 193 260 192q137 0 197.5 -49t60.5 -168q0 -145 -94 -182q102 -37 102 -203 q0 -133 -70 -188q-63 -47 -200 -47q-262 -1 -262 192zM479 0l717 1376h84l-721 -1376h-80zM926 229v68l372 522h72v-524h127v-66h-127v-229h-76v229h-368zM1012 295h282v405z" />
<glyph unicode="&#xbf;" horiz-adv-x="860" d="M66 -57q0 129 52 202.5t167 124.5q96 41 121 95q18 39 18 155v74h88v-109q0 -125 -45 -188q-37 -55 -132 -96t-134 -86q-49 -61 -49 -172q0 -145 61 -201.5t217 -56.5q154 0 219.5 46t65.5 160h82q0 -156 -88 -222t-275 -66q-190 0 -276 73q-92 79 -92 267zM395 926 q0 70 72 69q70 0 70 -69q0 -70 -70 -70q-72 0 -72 70z" />
<glyph unicode="&#xc0;" horiz-adv-x="1243" d="M53 0l520 1366h95l522 -1366h-96l-160 418h-631l-158 -418h-92zM334 496h569l-282 764zM428 1761h111l266 -264h-104z" />
<glyph unicode="&#xc1;" horiz-adv-x="1243" d="M53 0l520 1366h95l522 -1366h-96l-160 418h-631l-158 -418h-92zM334 496h569l-282 764zM444 1497l266 264h111l-272 -264h-105z" />
<glyph unicode="&#xc2;" horiz-adv-x="1243" d="M53 0l520 1366h95l522 -1366h-96l-160 418h-631l-158 -418h-92zM334 496h569l-282 764zM310 1497l272 264h84l270 -264h-104l-207 205l-209 -205h-106z" />
<glyph unicode="&#xc3;" horiz-adv-x="1243" d="M53 0l520 1366h95l522 -1366h-96l-160 418h-631l-158 -418h-92zM334 496h569l-282 764zM244 1655q61 35 125 71q74 37 133 37q57 0 113 -31q113 -61 153 -61q37 0 74 20l125 66l37 -66l-109 -59q-66 -37 -137 -37q-59 0 -113 29q-117 61 -151 61q-37 0 -76 -20l-133 -74z " />
<glyph unicode="&#xc4;" horiz-adv-x="1243" d="M53 0l520 1366h95l522 -1366h-96l-160 418h-631l-158 -418h-92zM334 496h569l-282 764zM338 1696q0 63 66 63q68 0 67 -63q0 -68 -67 -68q-66 0 -66 68zM777 1696q0 63 65 63q68 0 68 -63q0 -68 -68 -68q-65 0 -65 68z" />
<glyph unicode="&#xc5;" horiz-adv-x="1243" d="M53 0l486 1274q-145 25 -146 229q0 123 52.5 170t175.5 47t177 -49t54 -172q0 -205 -147 -225l485 -1274h-94l-160 418h-631l-158 -418h-94zM336 496h569l-282 764zM471 1491q0 -92 29.5 -123t122.5 -31q92 0 121.5 32t29.5 124t-30.5 125t-122.5 33q-96 0 -123 -34 t-27 -126z" />
<glyph unicode="&#xc6;" horiz-adv-x="1845" d="M4 0l901 1366h768v-82h-659v-541h639v-81h-639v-580h659v-82h-747v422h-545l-277 -422h-100zM432 502h494v753z" />
<glyph unicode="&#xc7;" horiz-adv-x="1300" d="M168 682q0 272 18 377q31 164 138 237q117 84 366 84q250 0 355.5 -81.5t105.5 -280.5h-84q-2 158 -85 218t-310 60q-203 0 -295 -69q-82 -61 -105 -205q-14 -86 -14 -340t12 -338q23 -143 107 -205q92 -70 295 -69q227 0 310 60t85 218h84q0 -201 -105.5 -281.5 t-355.5 -80.5v-82q133 0 133 -137q0 -150 -155 -150q-156 0 -156 125h68q0 -43 24 -57q16 -8 64 -9q49 0 66.5 18.5t17.5 67.5q0 61 -37 76q-18 8 -97 10v138q-305 14 -393 200q-57 119 -57 496z" />
<glyph unicode="&#xc8;" horiz-adv-x="1193" d="M201 0v1366h821v-82h-729v-541h708v-81h-708v-580h729v-82h-821zM389 1761h111l266 -264h-104z" />
<glyph unicode="&#xc9;" horiz-adv-x="1193" d="M201 0v1366h821v-82h-729v-541h708v-81h-708v-580h729v-82h-821zM413 1497l266 264h111l-272 -264h-105z" />
<glyph unicode="&#xca;" horiz-adv-x="1193" d="M201 0v1366h821v-82h-729v-541h708v-81h-708v-580h729v-82h-821zM289 1497l272 264h84l270 -264h-104l-207 205l-209 -205h-106z" />
<glyph unicode="&#xcb;" horiz-adv-x="1193" d="M201 0v1366h821v-82h-729v-541h708v-81h-708v-580h729v-82h-821zM327 1698q0 63 66 63q68 0 67 -63q0 -68 -67 -68q-66 0 -66 68zM766 1698q0 63 65 63q68 0 68 -63q0 -68 -68 -68q-65 0 -65 68z" />
<glyph unicode="&#xcc;" horiz-adv-x="491" d="M201 0v1366h90v-1366h-90zM80 1761h111l266 -264h-104z" />
<glyph unicode="&#xcd;" horiz-adv-x="491" d="M201 0v1366h90v-1366h-90zM94 1497l266 264h111l-272 -264h-105z" />
<glyph unicode="&#xce;" horiz-adv-x="491" d="M201 0v1366h90v-1366h-90zM-37 1497l272 264h84l270 -264h-104l-207 205l-209 -205h-106z" />
<glyph unicode="&#xcf;" horiz-adv-x="491" d="M201 0v1366h90v-1366h-90zM-9 1698q0 63 66 63q68 0 67 -63q0 -68 -67 -68q-66 0 -66 68zM430 1698q0 63 65 63q68 0 68 -63q0 -68 -68 -68q-65 0 -65 68z" />
<glyph unicode="&#xd0;" horiz-adv-x="1388" d="M59 647v82h179v637h462q186 0 283 -35q133 -51 191 -194q47 -117 47 -453q0 -195 -7 -264q-16 -160 -72.5 -253t-154.5 -130t-287 -37h-462v647h-179zM326 82h362q166 0 247 26.5t124 92.5q72 109 71 483q0 375 -71 483q-43 66 -124 92.5t-247 26.5h-362v-557h387v-82 h-387v-565z" />
<glyph unicode="&#xd1;" horiz-adv-x="1333" d="M201 0v1366h110l733 -1239v1239h89v-1366h-115l-729 1241v-1241h-88zM285 1655q61 35 125 71q74 37 133 37q57 0 113 -31q113 -61 153 -61q37 0 74 20l125 66l37 -66l-109 -59q-66 -37 -137 -37q-59 0 -113 29q-117 61 -151 61q-37 0 -76 -20l-133 -74z" />
<glyph unicode="&#xd2;" horiz-adv-x="1361" d="M168 684q0 272 14 365q29 168 131 243q117 88 367 88t367 -88q102 -76 131 -243q14 -92 14 -365q0 -274 -14 -367q-29 -168 -131 -243q-117 -90 -367 -90t-367 90q-102 76 -131 243q-14 93 -14 367zM258 682q0 -256 12 -336q23 -143 105 -207q96 -70 305 -69 q209 0 305 69q82 63 105 207q12 80 12 336t-12 336q-23 145 -105 207q-96 72 -305 71q-209 0 -305 -71q-82 -61 -105 -207q-12 -80 -12 -336zM506 1761h111l266 -264h-104z" />
<glyph unicode="&#xd3;" horiz-adv-x="1361" d="M168 684q0 272 14 365q29 168 131 243q117 88 367 88t367 -88q102 -76 131 -243q14 -92 14 -365q0 -274 -14 -367q-29 -168 -131 -243q-117 -90 -367 -90t-367 90q-102 76 -131 243q-14 93 -14 367zM258 682q0 -256 12 -336q23 -143 105 -207q96 -70 305 -69 q209 0 305 69q82 63 105 207q12 80 12 336t-12 336q-23 145 -105 207q-96 72 -305 71q-209 0 -305 -71q-82 -61 -105 -207q-12 -80 -12 -336zM479 1497l266 264h111l-272 -264h-105z" />
<glyph unicode="&#xd4;" horiz-adv-x="1361" d="M168 684q0 272 14 365q29 168 131 243q117 88 367 88t367 -88q102 -76 131 -243q14 -92 14 -365q0 -274 -14 -367q-29 -168 -131 -243q-117 -90 -367 -90t-367 90q-102 76 -131 243q-14 93 -14 367zM258 682q0 -256 12 -336q23 -143 105 -207q96 -70 305 -69 q209 0 305 69q82 63 105 207q12 80 12 336t-12 336q-23 145 -105 207q-96 72 -305 71q-209 0 -305 -71q-82 -61 -105 -207q-12 -80 -12 -336zM367 1497l272 264h84l270 -264h-104l-207 205l-209 -205h-106z" />
<glyph unicode="&#xd5;" horiz-adv-x="1361" d="M168 684q0 272 14 365q29 168 131 243q117 88 367 88t367 -88q102 -76 131 -243q14 -92 14 -365q0 -274 -14 -367q-29 -168 -131 -243q-117 -90 -367 -90t-367 90q-102 76 -131 243q-14 93 -14 367zM258 682q0 -256 12 -336q23 -143 105 -207q96 -70 305 -69 q209 0 305 69q82 63 105 207q12 80 12 336t-12 336q-23 145 -105 207q-96 72 -305 71q-209 0 -305 -71q-82 -61 -105 -207q-12 -80 -12 -336zM301 1655q61 35 125 71q74 37 133 37q57 0 113 -31q113 -61 153 -61q37 0 74 20l125 66l37 -66l-109 -59q-66 -37 -137 -37 q-59 0 -113 29q-117 61 -151 61q-37 0 -76 -20l-133 -74z" />
<glyph unicode="&#xd6;" horiz-adv-x="1361" d="M168 684q0 272 14 365q29 168 131 243q117 88 367 88t367 -88q102 -76 131 -243q14 -92 14 -365q0 -274 -14 -367q-29 -168 -131 -243q-117 -90 -367 -90t-367 90q-102 76 -131 243q-14 93 -14 367zM258 682q0 -256 12 -336q23 -143 105 -207q96 -70 305 -69 q209 0 305 69q82 63 105 207q12 80 12 336t-12 336q-23 145 -105 207q-96 72 -305 71q-209 0 -305 -71q-82 -61 -105 -207q-12 -80 -12 -336zM395 1696q0 63 66 63q68 0 67 -63q0 -68 -67 -68q-66 0 -66 68zM834 1696q0 63 65 63q68 0 68 -63q0 -68 -68 -68q-65 0 -65 68z " />
<glyph unicode="&#xd7;" horiz-adv-x="1153" d="M121 104l397 398l-395 395l57 57l395 -393l398 393l57 -57l-395 -395l397 -398l-59 -57l-398 399l-395 -399z" />
<glyph unicode="&#xd8;" horiz-adv-x="1359" d="M168 688q4 240 16 336q16 131 66 203q109 156 438 153q57 0 109 -6l61 273l80 -19l-59 -266q168 -31 245 -154q53 -84 66 -260q4 -68 2 -272q-4 -233 -16 -334q-18 -129 -68 -203q-109 -160 -436 -157q-39 0 -111 8l-61 -279l-80 17l61 274q-172 31 -248 154 q-53 86 -63 260q-4 67 -2 272zM256 684q-2 -246 10 -344q12 -86 51 -145q61 -90 183 -111l278 1208q-25 2 -90 4q-270 2 -358 -120q-51 -74 -66 -234q-6 -55 -8 -258zM580 70q23 -2 92 -2q270 -2 356 118q51 74 66 232q6 55 8 256q2 250 -8 346q-12 90 -52 147 q-61 90 -184 111z" />
<glyph unicode="&#xd9;" horiz-adv-x="1329" d="M188 449q0 -8 0 239v678h91v-678q0 -270 2 -305q6 -115 36 -170q80 -143 347 -143q262 0 342 143q33 59 41 170q4 66 4 305v678h90v-678q0 -238 -4 -295q-12 -156 -60 -231q-113 -178 -413 -178q-356 0 -445 229q-27 70 -31 236zM463 1761h111l266 -264h-104z" />
<glyph unicode="&#xda;" horiz-adv-x="1329" d="M188 449q0 -8 0 239v678h91v-678q0 -270 2 -305q6 -115 36 -170q80 -143 347 -143q262 0 342 143q33 59 41 170q4 66 4 305v678h90v-678q0 -238 -4 -295q-12 -156 -60 -231q-113 -178 -413 -178q-356 0 -445 229q-27 70 -31 236zM481 1497l266 264h111l-272 -264h-105z " />
<glyph unicode="&#xdb;" horiz-adv-x="1329" d="M188 449q0 -8 0 239v678h91v-678q0 -270 2 -305q6 -115 36 -170q80 -143 347 -143q262 0 342 143q33 59 41 170q4 66 4 305v678h90v-678q0 -238 -4 -295q-12 -156 -60 -231q-113 -178 -413 -178q-356 0 -445 229q-27 70 -31 236zM353 1497l272 264h84l270 -264h-104 l-207 205l-209 -205h-106z" />
<glyph unicode="&#xdc;" horiz-adv-x="1329" d="M188 449q0 -8 0 239v678h91v-678q0 -270 2 -305q6 -115 36 -170q80 -143 347 -143q262 0 342 143q33 59 41 170q4 66 4 305v678h90v-678q0 -238 -4 -295q-12 -156 -60 -231q-113 -178 -413 -178q-356 0 -445 229q-27 70 -31 236zM385 1696q0 63 66 63q68 0 67 -63 q0 -68 -67 -68q-66 0 -66 68zM824 1696q0 63 65 63q68 0 68 -63q0 -68 -68 -68q-65 0 -65 68z" />
<glyph unicode="&#xdd;" horiz-adv-x="1067" d="M23 1366h100l414 -678l409 678h98l-469 -764v-602h-88v602zM428 1512l266 264h111l-272 -264h-105z" />
<glyph unicode="&#xde;" horiz-adv-x="1232" d="M201 0v1366h90v-313h350q274 0 360 -45q137 -74 138 -322q0 -246 -138 -319q-90 -47 -360 -48h-350v-319h-90zM291 401h342q238 0 303 31q113 53 113 256q0 201 -115 254q-68 31 -301 31h-342v-572z" />
<glyph unicode="&#xdf;" d="M172 0v1004q0 227 70 321q88 117 331 117q219 0 312.5 -79t93.5 -271q0 -272 -191 -330q203 -51 203 -365q0 -217 -104 -311q-98 -86 -318 -86h-161v80h165q180 0 255 65.5t75 243.5q0 195 -76.5 264.5t-269.5 69.5h-149v80h149q186 0 260 61.5t74 220.5 q0 158 -67.5 216.5t-250.5 58.5q-188 0 -256 -86q-57 -74 -57 -264v-1010h-88z" />
<glyph unicode="&#xe0;" horiz-adv-x="1087" d="M119 276q0 180 102 248q82 55 275 56h348q-2 150 -8 182q-12 78 -72 110q-70 39 -225 39q-141 0 -211 -32q-100 -45 -101 -168h-82q0 285 410 284q188 0 279 -59q74 -51 90 -156q8 -45 8 -211v-569h-82v154q-82 -168 -365 -168q-190 0 -278 68t-88 222zM207 279 q0 -115 61.5 -164t210.5 -49q233 0 312 116q54 80 53 276v42h-357q-145 0 -204 -37q-76 -49 -76 -184zM346 1366h111l266 -264h-104z" />
<glyph unicode="&#xe1;" horiz-adv-x="1087" d="M119 276q0 180 102 248q82 55 275 56h348q-2 150 -8 182q-12 78 -72 110q-70 39 -225 39q-141 0 -211 -32q-100 -45 -101 -168h-82q0 285 410 284q188 0 279 -59q74 -51 90 -156q8 -45 8 -211v-569h-82v154q-82 -168 -365 -168q-190 0 -278 68t-88 222zM207 279 q0 -115 61.5 -164t210.5 -49q233 0 312 116q54 80 53 276v42h-357q-145 0 -204 -37q-76 -49 -76 -184zM366 1102l266 264h111l-272 -264h-105z" />
<glyph unicode="&#xe2;" horiz-adv-x="1087" d="M119 276q0 180 102 248q82 55 275 56h348q-2 150 -8 182q-12 78 -72 110q-70 39 -225 39q-141 0 -211 -32q-100 -45 -101 -168h-82q0 285 410 284q188 0 279 -59q74 -51 90 -156q8 -45 8 -211v-569h-82v154q-82 -168 -365 -168q-190 0 -278 68t-88 222zM207 279 q0 -115 61.5 -164t210.5 -49q233 0 312 116q54 80 53 276v42h-357q-145 0 -204 -37q-76 -49 -76 -184zM230 1102l272 264h84l270 -264h-104l-207 205l-209 -205h-106z" />
<glyph unicode="&#xe3;" horiz-adv-x="1087" d="M119 276q0 180 102 248q82 55 275 56h348q-2 150 -8 182q-12 78 -72 110q-70 39 -225 39q-141 0 -211 -32q-100 -45 -101 -168h-82q0 285 410 284q188 0 279 -59q74 -51 90 -156q8 -45 8 -211v-569h-82v154q-82 -168 -365 -168q-190 0 -278 68t-88 222zM207 279 q0 -115 61.5 -164t210.5 -49q233 0 312 116q54 80 53 276v42h-357q-145 0 -204 -37q-76 -49 -76 -184zM160 1264q61 35 125 71q74 37 133 37q57 0 113 -31q113 -61 153 -61q37 0 74 20l125 66l37 -66l-109 -59q-66 -37 -137 -37q-59 0 -113 29q-117 61 -151 61 q-37 0 -76 -20l-133 -74z" />
<glyph unicode="&#xe4;" horiz-adv-x="1087" d="M119 276q0 180 102 248q82 55 275 56h348q-2 150 -8 182q-12 78 -72 110q-70 39 -225 39q-141 0 -211 -32q-100 -45 -101 -168h-82q0 285 410 284q188 0 279 -59q74 -51 90 -156q8 -45 8 -211v-569h-82v154q-82 -168 -365 -168q-190 0 -278 68t-88 222zM207 279 q0 -115 61.5 -164t210.5 -49q233 0 312 116q54 80 53 276v42h-357q-145 0 -204 -37q-76 -49 -76 -184zM258 1303q0 63 66 63q68 0 67 -63q0 -68 -67 -68q-66 0 -66 68zM697 1303q0 63 65 63q68 0 68 -63q0 -68 -68 -68q-65 0 -65 68z" />
<glyph unicode="&#xe5;" horiz-adv-x="1087" d="M119 276q0 180 102 248q82 55 275 56h348q-2 150 -8 182q-12 78 -72 110q-70 39 -225 39q-141 0 -211 -32q-100 -45 -101 -168h-82q0 223 236 270q-59 31 -59 162q0 123 52 171t175 48q125 0 178 -48t53 -171q0 -129 -61 -162q154 -35 194 -154q18 -57 19 -258v-569h-82 v154q-82 -168 -365 -168q-190 0 -278 68t-88 222zM207 279q0 -115 61.5 -164t210.5 -49q233 0 312 116q59 88 53 318h-357q-145 0 -204 -37q-76 -49 -76 -184zM397 1139q0 -92 31 -121t123 -29t121.5 30t29.5 120q0 92 -30.5 125.5t-122.5 33.5t-122 -32.5t-30 -126.5z" />
<glyph unicode="&#xe6;" horiz-adv-x="1796" d="M119 270q0 178 104 248q84 57 275 57h350q0 201 -37 254q-55 82 -272 82q-141 0 -211 -32q-100 -45 -101 -168h-82q0 285 410 284q295 0 350 -166q76 166 350 166q236 0 326 -108q80 -98 80 -344v-49h-727q0 -236 49 -316q66 -109 281 -108q301 0 301 198h82 q0 -283 -385 -282q-324 0 -375 211q-68 -211 -400 -211q-193 0 -280.5 65t-87.5 219zM207 272q0 -113 61.5 -159.5t212.5 -46.5q236 0 312 116q55 84 55 314h-359q-143 0 -204 -39q-78 -52 -78 -185zM936 575h639q0 190 -64 263q-70 76 -256 75q-182 0 -250.5 -77 t-68.5 -261z" />
<glyph unicode="&#xe7;" horiz-adv-x="1054" d="M135 489q0 272 70 377q88 129 346 129q385 0 385 -284h-82q0 201 -301 200q-217 0 -283 -106q-47 -78 -47 -313q0 -236 47 -314q66 -111 283 -110q301 0 301 200h82q0 -270 -354 -282v-82q133 0 133 -137q0 -150 -156 -150t-156 125h68q0 -43 25 -57q16 -8 63 -9 q53 0 68.5 20.5t15.5 67.5q0 59 -41 76q-16 6 -92 8v138q-233 8 -311 137q-64 100 -64 366z" />
<glyph unicode="&#xe8;" horiz-adv-x="1085" d="M135 487q0 270 68 375q88 133 340 133q256 0 342 -135q66 -102 65 -379h-727q0 -229 49 -307q66 -104 279 -104q301 0 301 198h82q0 -283 -385 -282q-256 0 -344 127q-70 102 -70 374zM223 561h641q0 190 -67.5 271t-253.5 81q-182 0 -254 -86q-66 -78 -66 -266z M344 1366h111l266 -264h-104z" />
<glyph unicode="&#xe9;" horiz-adv-x="1085" d="M135 487q0 270 68 375q88 133 340 133q256 0 342 -135q66 -102 65 -379h-727q0 -229 49 -307q66 -104 279 -104q301 0 301 198h82q0 -283 -385 -282q-256 0 -344 127q-70 102 -70 374zM223 561h641q0 190 -67.5 271t-253.5 81q-182 0 -254 -86q-66 -78 -66 -266z M364 1102l266 264h111l-272 -264h-105z" />
<glyph unicode="&#xea;" horiz-adv-x="1085" d="M135 487q0 270 68 375q88 133 340 133q256 0 342 -135q66 -102 65 -379h-727q0 -229 49 -307q66 -104 279 -104q301 0 301 198h82q0 -283 -385 -282q-256 0 -344 127q-70 102 -70 374zM223 561h641q0 190 -67.5 271t-253.5 81q-182 0 -254 -86q-66 -78 -66 -266z M226 1102l272 264h84l270 -264h-104l-207 205l-209 -205h-106z" />
<glyph unicode="&#xeb;" horiz-adv-x="1085" d="M135 487q0 270 68 375q88 133 340 133q256 0 342 -135q66 -102 65 -379h-727q0 -229 49 -307q66 -104 279 -104q301 0 301 198h82q0 -283 -385 -282q-256 0 -344 127q-70 102 -70 374zM223 561h641q0 190 -67.5 271t-253.5 81q-182 0 -254 -86q-66 -78 -66 -266z M258 1303q0 63 66 63q68 0 67 -63q0 -68 -67 -68q-66 0 -66 68zM697 1303q0 63 65 63q68 0 68 -63q0 -68 -68 -68q-65 0 -65 68z" />
<glyph unicode="&#xec;" horiz-adv-x="432" d="M172 0v979h88v-979h-88zM28 1366h111l266 -264h-104z" />
<glyph unicode="&#xed;" horiz-adv-x="432" d="M27 1102l266 264h110l-272 -264h-104zM172 0v979h88v-979h-88z" />
<glyph unicode="&#xee;" horiz-adv-x="432" d="M172 0v979h88v-979h-88zM-98 1102l272 264h84l270 -264h-104l-207 205l-209 -205h-106z" />
<glyph unicode="&#xef;" horiz-adv-x="432" d="M172 0v979h88v-979h-88zM-70 1303q0 63 66 63q68 0 67 -63q0 -68 -67 -68q-66 0 -66 68zM369 1303q0 63 65 63q68 0 68 -63q0 -68 -68 -68q-65 0 -65 68z" />
<glyph unicode="&#xf0;" horiz-adv-x="1105" d="M135 489q0 256 62 363q86 145 325 143q88 0 150 -16l-248 246l-125 -109l-49 58l123 104l-115 115l59 53l117 -117l125 109l49 -58l-121 -104l304 -309q111 -113 144.5 -203t35.5 -275q2 -270 -72 -374q-90 -129 -346 -129q-258 0 -346 129q-72 102 -72 374zM221 489 q0 -238 47 -315q66 -106 285 -106q215 0 283 108q47 78 47 313q0 233 -81 326.5t-278 95.5q-195 2 -258 -120q-45 -85 -45 -302z" />
<glyph unicode="&#xf1;" horiz-adv-x="1097" d="M172 1264q61 35 125 71q74 37 133 37q57 0 113 -31q113 -61 153 -61q37 0 74 20l125 66l37 -66l-109 -59q-66 -37 -137 -37q-59 0 -113 29q-117 61 -151 61q-37 0 -76 -20l-133 -74zM174 0v979h84v-148q88 164 330 164q190 0 274 -84q59 -59 74 -157q8 -53 8 -232v-522 h-88v506q0 170 -8 221q-10 82 -55 125q-63 59 -207 59q-223 0 -289 -153q-35 -84 -35 -324v-434h-88z" />
<glyph unicode="&#xf2;" horiz-adv-x="1110" d="M135 489q0 262 64 363q88 143 356 143t356 -143q63 -100 64 -363q0 -260 -64 -362q-88 -141 -356 -141t-356 141q-64 100 -64 362zM223 489q0 -236 49 -313q66 -106 283 -106t283 106q49 78 49 313q0 236 -49 314q-66 109 -283 108q-217 0 -283 -108q-49 -78 -49 -314z M373 1366h111l266 -264h-104z" />
<glyph unicode="&#xf3;" horiz-adv-x="1110" d="M135 489q0 262 64 363q88 143 356 143t356 -143q63 -100 64 -363q0 -260 -64 -362q-88 -141 -356 -141t-356 141q-64 100 -64 362zM223 489q0 -236 49 -313q66 -106 283 -106t283 106q49 78 49 313q0 236 -49 314q-66 109 -283 108q-217 0 -283 -108q-49 -78 -49 -314z M356 1102l266 264h111l-272 -264h-105z" />
<glyph unicode="&#xf4;" horiz-adv-x="1110" d="M135 489q0 262 64 363q88 143 356 143t356 -143q63 -100 64 -363q0 -260 -64 -362q-88 -141 -356 -141t-356 141q-64 100 -64 362zM223 489q0 -236 49 -313q66 -106 283 -106t283 106q49 78 49 313q0 236 -49 314q-66 109 -283 108q-217 0 -283 -108q-49 -78 -49 -314z M240 1102l272 264h84l270 -264h-104l-207 205l-209 -205h-106z" />
<glyph unicode="&#xf5;" horiz-adv-x="1110" d="M135 489q0 262 64 363q88 143 356 143t356 -143q63 -100 64 -363q0 -260 -64 -362q-88 -141 -356 -141t-356 141q-64 100 -64 362zM223 489q0 -236 49 -313q66 -106 283 -106t283 106q49 78 49 313q0 236 -49 314q-66 109 -283 108q-217 0 -283 -108q-49 -78 -49 -314z M174 1264q61 35 125 71q74 37 133 37q57 0 113 -31q113 -61 153 -61q37 0 74 20l125 66l37 -66l-109 -59q-66 -37 -137 -37q-59 0 -113 29q-117 61 -151 61q-37 0 -76 -20l-133 -74z" />
<glyph unicode="&#xf6;" horiz-adv-x="1110" d="M135 489q0 262 64 363q88 143 356 143t356 -143q63 -100 64 -363q0 -260 -64 -362q-88 -141 -356 -141t-356 141q-64 100 -64 362zM223 489q0 -236 49 -313q66 -106 283 -106t283 106q49 78 49 313q0 236 -49 314q-66 109 -283 108q-217 0 -283 -108q-49 -78 -49 -314z M268 1303q0 63 66 63q68 0 67 -63q0 -68 -67 -68q-66 0 -66 68zM707 1303q0 63 65 63q68 0 68 -63q0 -68 -68 -68q-65 0 -65 68z" />
<glyph unicode="&#xf7;" d="M76 451v81h999v-81h-999zM506 55q0 70 69 70q72 0 72 -70t-72 -69q-69 -1 -69 69zM506 926q0 70 69 69q72 0 72 -69q0 -70 -72 -70q-69 0 -69 70z" />
<glyph unicode="&#xf8;" horiz-adv-x="1110" d="M135 494q2 262 66 360q90 143 358 141q66 0 123 -10l66 186l77 -26l-63 -180q141 -51 186 -195q29 -92 27 -285q-4 -272 -78 -374q-90 -127 -350 -125q-61 0 -123 10l-68 -191l-77 27l65 184q-141 51 -184 195q-27 84 -25 283zM223 492q-2 -174 10 -232q31 -127 140 -164 l280 809q-41 6 -94 6q-217 2 -285 -106q-49 -77 -51 -313zM451 76q53 -8 96 -8q217 -2 287 104q49 80 53 315q2 160 -15 230q-33 131 -139 168z" />
<glyph unicode="&#xf9;" horiz-adv-x="1097" d="M156 457v522h88v-506q0 -170 8 -221q10 -82 55 -125q63 -59 207 -59q223 0 289 153q35 84 35 324v434h88v-979h-84v147q-90 -164 -330 -163q-190 0 -274 84q-59 59 -74 157q-8 54 -8 232zM358 1366h111l266 -264h-104z" />
<glyph unicode="&#xfa;" horiz-adv-x="1097" d="M156 457v522h88v-506q0 -170 8 -221q10 -82 55 -125q63 -59 207 -59q223 0 289 153q35 84 35 324v434h88v-979h-84v147q-90 -164 -330 -163q-190 0 -274 84q-59 59 -74 157q-8 54 -8 232zM370 1102l266 264h111l-272 -264h-105z" />
<glyph unicode="&#xfb;" horiz-adv-x="1097" d="M156 457v522h88v-506q0 -170 8 -221q10 -82 55 -125q63 -59 207 -59q223 0 289 153q35 84 35 324v434h88v-979h-84v147q-90 -164 -330 -163q-190 0 -274 84q-59 59 -74 157q-8 54 -8 232zM236 1102l272 264h84l270 -264h-104l-207 205l-209 -205h-106z" />
<glyph unicode="&#xfc;" horiz-adv-x="1097" d="M156 457v522h88v-506q0 -170 8 -221q10 -82 55 -125q63 -59 207 -59q223 0 289 153q35 84 35 324v434h88v-979h-84v147q-90 -164 -330 -163q-190 0 -274 84q-59 59 -74 157q-8 54 -8 232zM262 1303q0 63 66 63q68 0 67 -63q0 -68 -67 -68q-66 0 -66 68zM701 1303 q0 63 65 63q68 0 68 -63q0 -68 -68 -68q-65 0 -65 68z" />
<glyph unicode="&#xfd;" horiz-adv-x="931" d="M68 979h92l317 -866l307 866h93l-504 -1370h-90l147 393zM354 1102l266 264h111l-272 -264h-105z" />
<glyph unicode="&#xfe;" horiz-adv-x="1130" d="M172 -391v1818h88v-589q94 158 342 157q248 0 332 -139q61 -102 61 -367q0 -264 -61 -364q-84 -139 -332 -139t-342 157v-534h-88zM258 492q0 -242 78 -332t276 -90q195 0 256 123q39 80 39 299q0 217 -41 296q-61 121 -254 121q-201 0 -277.5 -88.5t-76.5 -328.5z" />
<glyph unicode="&#xff;" horiz-adv-x="931" d="M68 979h92l317 -866l307 866h93l-504 -1370h-90l147 393zM190 1303q0 63 66 63q68 0 67 -63q0 -68 -67 -68q-66 0 -66 68zM629 1303q0 63 65 63q68 0 68 -63q0 -68 -68 -68q-65 0 -65 68z" />
<glyph unicode="&#x131;" horiz-adv-x="432" d="M172 0v979h88v-979h-88z" />
<glyph unicode="&#x152;" horiz-adv-x="1875" d="M168 684q0 190 6 262q16 162 72.5 254t156 129t285.5 37h1016v-82h-668v-541h647v-81h-647v-580h668v-82h-1016q-186 0 -282 37q-133 49 -191 192q-47 117 -47 455zM258 684q0 -377 72 -483q45 -66 123.5 -92.5t246.5 -26.5h248v1202h-250q-166 0 -246.5 -26.5 t-121.5 -89t-56 -160.5q-16 -105 -16 -324z" />
<glyph unicode="&#x153;" horiz-adv-x="1832" d="M135 489q0 262 64 363q88 143 356 143q309 0 373 -198q59 199 362 198q258 0 342 -135q66 -102 66 -379h-727q0 -229 49 -307q68 -106 278 -106q301 0 301 200h82q0 -283 -385 -282q-311 0 -368 198q-57 -199 -373 -198q-258 0 -348 129q-72 102 -72 374zM223 489 q0 -236 49 -313q66 -109 283 -108q215 0 283 108q49 80 49 313q0 236 -49 316q-68 106 -283 106q-217 0 -283 -108q-49 -78 -49 -314zM971 561h641q0 190 -67.5 271t-254.5 81q-182 0 -254 -86q-65 -78 -65 -266z" />
<glyph unicode="&#x178;" horiz-adv-x="1067" d="M23 1366h100l414 -678l409 678h98l-469 -764v-602h-88v602zM247 1690q0 63 66 63q68 0 67 -63q0 -68 -67 -68q-66 0 -66 68zM686 1690q0 63 65 63q68 0 68 -63q0 -68 -68 -68q-65 0 -65 68z" />
<glyph unicode="&#x2c6;" horiz-adv-x="849" d="M113 1102l272 264h84l270 -264h-104l-207 205l-209 -205h-106z" />
<glyph unicode="&#x2dc;" horiz-adv-x="849" d="M43 1264q61 35 125 71q74 37 133 37q57 0 113 -31q113 -61 153 -61q37 0 74 20l125 66l37 -66l-109 -59q-66 -37 -137 -37q-59 0 -113 29q-117 61 -151 61q-37 0 -76 -20l-133 -74z" />
<glyph unicode="&#x2000;" horiz-adv-x="886" />
<glyph unicode="&#x2001;" horiz-adv-x="1775" />
<glyph unicode="&#x2002;" horiz-adv-x="886" />
<glyph unicode="&#x2003;" horiz-adv-x="1775" />
<glyph unicode="&#x2004;" horiz-adv-x="591" />
<glyph unicode="&#x2005;" horiz-adv-x="442" />
<glyph unicode="&#x2006;" horiz-adv-x="294" />
<glyph unicode="&#x2007;" horiz-adv-x="294" />
<glyph unicode="&#x2008;" horiz-adv-x="221" />
<glyph unicode="&#x2009;" horiz-adv-x="354" />
<glyph unicode="&#x200a;" horiz-adv-x="98" />
<glyph unicode="&#x2010;" horiz-adv-x="983" d="M193 451v81h598v-81h-598z" />
<glyph unicode="&#x2011;" horiz-adv-x="983" d="M193 451v81h598v-81h-598z" />
<glyph unicode="&#x2012;" horiz-adv-x="983" d="M193 451v81h598v-81h-598z" />
<glyph unicode="&#x2013;" d="M63 451v81h1024v-81h-1024z" />
<glyph unicode="&#x2014;" horiz-adv-x="2048" d="M205 451v81h1638v-81h-1638z" />
<glyph unicode="&#x2018;" horiz-adv-x="425" d="M168 948v154q0 86 12 129q18 59 74 108l51 45l55 -55l-38 -37q-45 -43 -58 -86q-10 -31 -10 -104v-154h-86z" />
<glyph unicode="&#x2019;" horiz-adv-x="425" d="M66 985l38 37q45 43 58 86q10 31 10 104v154h86v-154q0 -86 -12 -129q-18 -59 -74 -108l-51 -45z" />
<glyph unicode="&#x201a;" horiz-adv-x="425" d="M66 -258q4 4 38 37q45 45 58 86q10 31 10 104v154h86v-154q0 -86 -12 -129q-18 -59 -74 -108l-51 -45z" />
<glyph unicode="&#x201c;" horiz-adv-x="757" d="M168 948v154q0 86 12 129q18 59 74 108l51 45l55 -55l-38 -37q-45 -43 -58 -86q-10 -31 -10 -104v-154h-86zM500 948v154q0 86 12 129q18 59 74 108l51 45l55 -55l-39 -37q-45 -43 -57 -86q-10 -31 -10 -104v-154h-86z" />
<glyph unicode="&#x201d;" horiz-adv-x="757" d="M66 985l38 37q45 43 58 86q10 31 10 104v154h86v-154q0 -86 -12 -129q-18 -59 -74 -108l-51 -45zM397 985l39 37q45 43 58 86q10 31 10 104v154h86v-154q0 -86 -12 -129q-18 -59 -74 -108l-51 -45z" />
<glyph unicode="&#x201e;" horiz-adv-x="757" d="M66 -258l38 37q45 43 58 86q10 31 10 104v154h86v-154q0 -86 -12 -129q-18 -59 -74 -108l-51 -45zM397 -258l39 37q45 43 58 86q10 31 10 104v154h86v-154q0 -86 -12 -129q-18 -59 -74 -108l-51 -45z" />
<glyph unicode="&#x2022;" horiz-adv-x="1024" d="M338 684q0 172 174 172t174 -172q0 -170 -174 -170t-174 170z" />
<glyph unicode="&#x2026;" horiz-adv-x="2052" d="M270 55q0 70 70 70q72 0 72 -70h2q0 -70 -72 -69q-72 -1 -72 69zM954 55q0 70 70 70q72 0 72 -70h2q0 -70 -72 -69q-72 -1 -72 69zM1638 55q0 70 70 70q74 0 74 -70t-72 -69q-72 -1 -72 69z" />
<glyph unicode="&#x202f;" horiz-adv-x="354" />
<glyph unicode="&#x2039;" horiz-adv-x="528" d="M109 485q0 96 92 220q37 49 166 182l57 -60q-117 -119 -145 -157q-86 -106 -86 -183q0 -80 81 -182q31 -37 146 -151l-58 -58q-127 127 -163 174q-90 117 -90 215z" />
<glyph unicode="&#x203a;" horiz-adv-x="528" d="M104 827l58 60q129 -133 166 -182q92 -123 92 -220q0 -98 -90 -215q-37 -47 -164 -174l-57 58q115 115 145 151q82 102 82 182q0 76 -84 183q-31 38 -148 157z" />
<glyph unicode="&#x205f;" horiz-adv-x="442" />
<glyph unicode="&#x2122;" horiz-adv-x="1736" d="M33 1296v70h631v-70h-275v-819h-80v819h-276zM748 477v889h110l291 -805l295 805h108v-889h-73v776l-283 -776h-94l-279 776v-776h-75z" />
<glyph unicode="&#xe000;" horiz-adv-x="980" d="M0 980h980v-980h-980v980z" />
<glyph unicode="&#xfb01;" horiz-adv-x="1318" d="M1039 1317q0 63 65 63q66 0 66 -63q0 -68 -66 -68q-65 0 -65 68zM1059 0v979h88v-979h-88zM49 899v80h164v182q0 135 70 203q80 78 258 78q326 0 325 -228h-84q0 143 -237 144q-123 0 -178 -37q-66 -45 -66 -160v-182h440v-80h-440v-899h-88v899h-164z" />
<glyph unicode="&#xfb02;" horiz-adv-x="1318" d="M1059 0v1427h88v-1427h-88zM49 899v80h164v182q0 135 70 203q80 78 258 78q326 0 325 -228h-84q0 143 -237 144q-123 0 -178 -37q-66 -45 -66 -160v-182h440v-80h-440v-899h-88v899h-164z" />
<glyph unicode="&#xfb03;" horiz-adv-x="2205" d="M1926 1317q0 63 65 63q66 0 66 -63q0 -68 -66 -68q-65 0 -65 68zM1946 0v979h88v-979h-88zM936 899v80h164v182q0 135 70 203q80 78 258 78q326 0 325 -228h-84q0 143 -237 144q-123 0 -178 -37q-66 -45 -66 -160v-182h440v-80h-440v-899h-88v899h-164zM49 899v80h164 v182q0 135 70 203q80 78 258 78q326 0 325 -228h-84q0 143 -237 144q-123 0 -178 -37q-66 -45 -66 -160v-182h440v-80h-440v-899h-88v899h-164z" />
<glyph unicode="&#xfb04;" horiz-adv-x="2205" d="M1946 0v1427h88v-1427h-88zM936 899v80h164v182q0 135 70 203q80 78 258 78q326 0 325 -228h-84q0 143 -237 144q-123 0 -178 -37q-66 -45 -66 -160v-182h440v-80h-440v-899h-88v899h-164zM49 899v80h164v182q0 135 70 203q80 78 258 78q326 0 325 -228h-84 q0 143 -237 144q-123 0 -178 -37q-66 -45 -66 -160v-182h440v-80h-440v-899h-88v899h-164z" />
</font>
</defs>
</svg>
